<?xml version="1.0" encoding="UTF-8" standalone="no"?><svg xmlns="http://www.w3.org/2000/svg" xmlns:xlink="http://www.w3.org/1999/xlink" contentScriptType="application/ecmascript" contentStyleType="text/css" height="297px" preserveAspectRatio="none" style="width:181px;height:297px;" version="1.1" viewBox="0 0 181 297" width="181px" zoomAndPan="magnify"><defs><filter height="300%" id="fdl9i1zjx0t99" width="300%" x="-1" y="-1"><feGaussianBlur result="blurOut" stdDeviation="2.0"/><feColorMatrix in="blurOut" result="blurOut2" type="matrix" values="0 0 0 0 0 0 0 0 0 0 0 0 0 0 0 0 0 0 .4 0"/><feOffset dx="4.0" dy="4.0" in="blurOut2" result="blurOut3"/><feBlend in="SourceGraphic" in2="blurOut3" mode="normal"/></filter></defs><g><ellipse cx="90" cy="20" fill="#000000" filter="url(#fdl9i1zjx0t99)" rx="10" ry="10" style="stroke: none; stroke-width: 1.0;"/><rect fill="#FEFECE" filter="url(#fdl9i1zjx0t99)" height="34.1328" rx="12.5" ry="12.5" style="stroke: #A80036; stroke-width: 1.5;" width="115" x="32.5" y="50"/><text fill="#000000" font-family="sans-serif" font-size="12" lengthAdjust="spacingAndGlyphs" textLength="95" x="42.5" y="71.6016">Validate request</text><rect fill="#FEFECE" filter="url(#fdl9i1zjx0t99)" height="34.1328" rx="12.5" ry="12.5" style="stroke: #A80036; stroke-width: 1.5;" width="136" x="22" y="104.1328"/><text fill="#000000" font-family="sans-serif" font-size="12" lengthAdjust="spacingAndGlyphs" textLength="116" x="32" y="125.7344">Update a user in DB</text><rect fill="#FEFECE" filter="url(#fdl9i1zjx0t99)" height="34.1328" rx="12.5" ry="12.5" style="stroke: #A80036; stroke-width: 1.5;" width="159" x="10.5" y="158.2656"/><text fill="#000000" font-family="sans-serif" font-size="12" lengthAdjust="spacingAndGlyphs" textLength="139" x="20.5" y="179.8672">Send information e-mail</text><rect fill="#FEFECE" filter="url(#fdl9i1zjx0t99)" height="34.1328" rx="12.5" ry="12.5" style="stroke: #A80036; stroke-width: 1.5;" width="160" x="10" y="212.3984"/><text fill="#000000" font-family="sans-serif" font-size="12" lengthAdjust="spacingAndGlyphs" textLength="140" x="20" y="234">Return a result to a user</text><ellipse cx="90" cy="276.5313" fill="none" filter="url(#fdl9i1zjx0t99)" rx="10" ry="10" style="stroke: #000000; stroke-width: 1.0;"/><ellipse cx="90.5" cy="277.0313" fill="#000000" filter="url(#fdl9i1zjx0t99)" rx="6" ry="6" style="stroke: none; stroke-width: 1.0;"/><line style="stroke: #A80036; stroke-width: 1.5;" x1="90" x2="90" y1="30" y2="50"/><polygon fill="#A80036" points="86,40,90,50,94,40,90,44" style="stroke: #A80036; stroke-width: 1.0;"/><line style="stroke: #A80036; stroke-width: 1.5;" x1="90" x2="90" y1="84.1328" y2="104.1328"/><polygon fill="#A80036" points="86,94.1328,90,104.1328,94,94.1328,90,98.1328" style="stroke: #A80036; stroke-width: 1.0;"/><line style="stroke: #A80036; stroke-width: 1.5;" x1="90" x2="90" y1="138.2656" y2="158.2656"/><polygon fill="#A80036" points="86,148.2656,90,158.2656,94,148.2656,90,152.2656" style="stroke: #A80036; stroke-width: 1.0;"/><line style="stroke: #A80036; stroke-width: 1.5;" x1="90" x2="90" y1="192.3984" y2="212.3984"/><polygon fill="#A80036" points="86,202.3984,90,212.3984,94,202.3984,90,206.3984" style="stroke: #A80036; stroke-width: 1.0;"/><line style="stroke: #A80036; stroke-width: 1.5;" x1="90" x2="90" y1="246.5313" y2="266.5313"/><polygon fill="#A80036" points="86,256.5313,90,266.5313,94,256.5313,90,260.5313" style="stroke: #A80036; stroke-width: 1.0;"/><!--
@startuml
start
:Validate request;
:Update a user in DB;
:Send information e-mail;
:Return a result to a user;
stop
@enduml

PlantUML version 1.2018.11(Sat Sep 22 18:43:53 CEST 2018)
(GPL source distribution)
Java Runtime: Java(TM) SE Runtime Environment
JVM: Java HotSpot(TM) 64-Bit Server VM
Java Version: 10.0.1+10
Operating System: Mac OS X
OS Version: 10.13.6
Default Encoding: UTF-8
Language: en
Country: CZ
--></g></svg>
