<?xml version="1.0" encoding="UTF-8" standalone="no"?><svg xmlns="http://www.w3.org/2000/svg" xmlns:xlink="http://www.w3.org/1999/xlink" contentScriptType="application/ecmascript" contentStyleType="text/css" height="196px" preserveAspectRatio="none" style="width:369px;height:196px;" version="1.1" viewBox="0 0 369 196" width="369px" zoomAndPan="magnify"><defs><filter height="300%" id="f1ec8ecmrho54h" width="300%" x="-1" y="-1"><feGaussianBlur result="blurOut" stdDeviation="2.0"/><feColorMatrix in="blurOut" result="blurOut2" type="matrix" values="0 0 0 0 0 0 0 0 0 0 0 0 0 0 0 0 0 0 .4 0"/><feOffset dx="4.0" dy="4.0" in="blurOut2" result="blurOut3"/><feBlend in="SourceGraphic" in2="blurOut3" mode="normal"/></filter></defs><g><path d="M92.5,10 L92.5,35.3105 L163.5,35.3105 L163.5,20 L153.5,10 L92.5,10 " fill="#FBFB77" filter="url(#f1ec8ecmrho54h)" style="stroke: #A80036; stroke-width: 1.0;"/><path d="M153.5,10 L153.5,20 L163.5,20 L153.5,10 " fill="#FBFB77" style="stroke: #A80036; stroke-width: 1.0;"/><text fill="#000000" font-family="sans-serif" font-size="13" lengthAdjust="spacingAndGlyphs" textLength="50" x="98.5" y="27.5684">Request</text><ellipse cx="193.5" cy="22.6553" fill="#000000" filter="url(#f1ec8ecmrho54h)" rx="10" ry="10" style="stroke: none; stroke-width: 1.0;"/><polygon fill="#FEFECE" filter="url(#f1ec8ecmrho54h)" points="32,55.3105,73,55.3105,85,67.3105,73,79.3105,32,79.3105,20,67.3105,32,55.3105" style="stroke: #A80036; stroke-width: 1.5;"/><text fill="#000000" font-family="sans-serif" font-size="11" lengthAdjust="spacingAndGlyphs" textLength="16" x="56.5" y="89.9453">fail</text><text fill="#000000" font-family="sans-serif" font-size="11" lengthAdjust="spacingAndGlyphs" textLength="41" x="32" y="71.4678">validate</text><polygon fill="#FEFECE" filter="url(#f1ec8ecmrho54h)" points="117,55.3105,154,55.3105,166,67.3105,154,79.3105,117,79.3105,105,67.3105,117,55.3105" style="stroke: #A80036; stroke-width: 1.5;"/><text fill="#000000" font-family="sans-serif" font-size="11" lengthAdjust="spacingAndGlyphs" textLength="16" x="139.5" y="89.9453">fail</text><text fill="#000000" font-family="sans-serif" font-size="11" lengthAdjust="spacingAndGlyphs" textLength="37" x="117" y="71.4678">update</text><polygon fill="#FEFECE" filter="url(#f1ec8ecmrho54h)" points="198,55.3105,224,55.3105,236,67.3105,224,79.3105,198,79.3105,186,67.3105,198,55.3105" style="stroke: #A80036; stroke-width: 1.5;"/><text fill="#000000" font-family="sans-serif" font-size="11" lengthAdjust="spacingAndGlyphs" textLength="16" x="215" y="89.9453">fail</text><text fill="#000000" font-family="sans-serif" font-size="11" lengthAdjust="spacingAndGlyphs" textLength="26" x="198" y="71.4678">send</text><text fill="#000000" font-family="sans-serif" font-size="11" lengthAdjust="spacingAndGlyphs" textLength="13" x="236" y="64.9902">ok</text><path d="M286,96.1328 L286,121.4434 L357,121.4434 L357,106.1328 L347,96.1328 L286,96.1328 " fill="#FBFB77" filter="url(#f1ec8ecmrho54h)" style="stroke: #A80036; stroke-width: 1.0;"/><path d="M347,96.1328 L347,106.1328 L357,106.1328 L347,96.1328 " fill="#FBFB77" style="stroke: #A80036; stroke-width: 1.0;"/><text fill="#000000" font-family="sans-serif" font-size="13" lengthAdjust="spacingAndGlyphs" textLength="50" x="292" y="113.7012">Success</text><ellipse cx="266" cy="108.7881" fill="none" filter="url(#f1ec8ecmrho54h)" rx="10" ry="10" style="stroke: #000000; stroke-width: 1.0;"/><ellipse cx="266.5" cy="109.2881" fill="#000000" filter="url(#f1ec8ecmrho54h)" rx="6" ry="6" style="stroke: none; stroke-width: 1.0;"/><path d="M100.5,158.7881 L100.5,184.0986 L163.5,184.0986 L163.5,168.7881 L153.5,158.7881 L100.5,158.7881 " fill="#FBFB77" filter="url(#f1ec8ecmrho54h)" style="stroke: #A80036; stroke-width: 1.0;"/><path d="M153.5,158.7881 L153.5,168.7881 L163.5,168.7881 L153.5,158.7881 " fill="#FBFB77" style="stroke: #A80036; stroke-width: 1.0;"/><text fill="#000000" font-family="sans-serif" font-size="13" lengthAdjust="spacingAndGlyphs" textLength="42" x="106.5" y="176.3564">Failure</text><ellipse cx="193.5" cy="171.4434" fill="#FFFFFF" filter="url(#f1ec8ecmrho54h)" rx="10" ry="10" style="stroke: #000000; stroke-width: 1.5;"/><line style="stroke: #000000; stroke-width: 2.5;" x1="187.3128" x2="199.6872" y1="165.2562" y2="177.6305"/><line style="stroke: #000000; stroke-width: 2.5;" x1="199.6872" x2="187.3128" y1="165.2562" y2="177.6305"/><line style="stroke: #A80036; stroke-width: 1.5;" x1="52.5" x2="52.5" y1="79.3105" y2="141.4434"/><polygon fill="#A80036" points="48.5,131.4434,52.5,141.4434,56.5,131.4434,52.5,135.4434" style="stroke: #A80036; stroke-width: 1.0;"/><line style="stroke: #A80036; stroke-width: 1.5;" x1="135.5" x2="135.5" y1="79.3105" y2="141.4434"/><polygon fill="#A80036" points="131.5,131.4434,135.5,141.4434,139.5,131.4434,135.5,135.4434" style="stroke: #A80036; stroke-width: 1.0;"/><line style="stroke: #A80036; stroke-width: 1.5;" x1="211" x2="211" y1="79.3105" y2="141.4434"/><polygon fill="#A80036" points="207,131.4434,211,141.4434,215,131.4434,211,135.4434" style="stroke: #A80036; stroke-width: 1.0;"/><line style="stroke: #A80036; stroke-width: 1.5;" x1="85" x2="105" y1="67.3105" y2="67.3105"/><polygon fill="#A80036" points="95,63.3105,105,67.3105,95,71.3105,99,67.3105" style="stroke: #A80036; stroke-width: 1.0;"/><line style="stroke: #A80036; stroke-width: 1.5;" x1="166" x2="186" y1="67.3105" y2="67.3105"/><polygon fill="#A80036" points="176,63.3105,186,67.3105,176,71.3105,180,67.3105" style="stroke: #A80036; stroke-width: 1.0;"/><line style="stroke: #A80036; stroke-width: 1.5;" x1="193.5" x2="193.5" y1="32.6553" y2="40.3105"/><line style="stroke: #A80036; stroke-width: 1.5;" x1="193.5" x2="52.5" y1="40.3105" y2="40.3105"/><line style="stroke: #A80036; stroke-width: 1.5;" x1="52.5" x2="52.5" y1="40.3105" y2="55.3105"/><polygon fill="#A80036" points="48.5,45.3105,52.5,55.3105,56.5,45.3105,52.5,49.3105" style="stroke: #A80036; stroke-width: 1.0;"/><line style="stroke: #008000; stroke-width: 1.5;" x1="236" x2="266" y1="67.3105" y2="67.3105"/><line style="stroke: #008000; stroke-width: 1.5;" x1="266" x2="266" y1="67.3105" y2="98.7881"/><polygon fill="#008000" points="262,88.7881,266,98.7881,270,88.7881,266,92.7881" style="stroke: #008000; stroke-width: 1.0;"/><line style="stroke: #A80036; stroke-width: 1.5;" x1="52.5" x2="211" y1="141.4434" y2="141.4434"/><line style="stroke: #A80036; stroke-width: 1.5;" x1="193.5" x2="193.5" y1="141.4434" y2="161.4434"/><polygon fill="#A80036" points="189.5,151.4434,193.5,161.4434,197.5,151.4434,193.5,155.4434" style="stroke: #A80036; stroke-width: 1.0;"/><!--
@startuml
start
floating note left: Request
if (validate) then (fail)
elseif (update) then (fail)
elseif (send) then (fail)
else (ok)
  -[#008000]->
  stop
  floating note right: Success
endif
end
floating note left: Failure
@enduml

PlantUML version 1.2018.11(Sat Sep 22 18:43:53 CEST 2018)
(GPL source distribution)
Java Runtime: Java(TM) SE Runtime Environment
JVM: Java HotSpot(TM) 64-Bit Server VM
Java Version: 10.0.1+10
Operating System: Mac OS X
OS Version: 10.13.6
Default Encoding: UTF-8
Language: en
Country: CZ
--></g></svg>
