<?xml version="1.0" encoding="UTF-8" standalone="no"?><svg xmlns="http://www.w3.org/2000/svg" xmlns:xlink="http://www.w3.org/1999/xlink" contentScriptType="application/ecmascript" contentStyleType="text/css" height="488px" preserveAspectRatio="none" style="width:1183px;height:488px;" version="1.1" viewBox="0 0 1183 488" width="1183px" zoomAndPan="magnify"><defs><filter height="300%" id="f1os8n1txbr40o" width="300%" x="-1" y="-1"><feGaussianBlur result="blurOut" stdDeviation="2.0"/><feColorMatrix in="blurOut" result="blurOut2" type="matrix" values="0 0 0 0 0 0 0 0 0 0 0 0 0 0 0 0 0 0 .4 0"/><feOffset dx="4.0" dy="4.0" in="blurOut2" result="blurOut3"/><feBlend in="SourceGraphic" in2="blurOut3" mode="normal"/></filter></defs><g><ellipse cx="366.75" cy="20" fill="#000000" filter="url(#f1os8n1txbr40o)" rx="10" ry="10" style="stroke: none; stroke-width: 1.0;"/><rect fill="#FEFECE" filter="url(#f1os8n1txbr40o)" height="34.1328" rx="12.5" ry="12.5" style="stroke: #A80036; stroke-width: 1.5;" width="115" x="309.25" y="50"/><text fill="#000000" font-family="sans-serif" font-size="12" lengthAdjust="spacingAndGlyphs" textLength="95" x="319.25" y="71.6016">Validate request</text><polygon fill="#FEFECE" filter="url(#f1os8n1txbr40o)" points="330.25,104.1328,403.25,104.1328,415.25,116.1328,403.25,128.1328,330.25,128.1328,318.25,116.1328,330.25,104.1328" style="stroke: #A80036; stroke-width: 1.5;"/><text fill="#000000" font-family="sans-serif" font-size="11" lengthAdjust="spacingAndGlyphs" textLength="73" x="330.25" y="120.29">name is blank</text><text fill="#000000" font-family="sans-serif" font-size="11" lengthAdjust="spacingAndGlyphs" textLength="18" x="300.25" y="113.8125">yes</text><text fill="#000000" font-family="sans-serif" font-size="11" lengthAdjust="spacingAndGlyphs" textLength="14" x="415.25" y="113.8125">no</text><rect fill="#FEFECE" filter="url(#f1os8n1txbr40o)" height="34.1328" rx="12.5" ry="12.5" style="stroke: #A80036; stroke-width: 1.5;" width="224" x="10" y="138.1328"/><text fill="#000000" font-family="sans-serif" font-size="12" lengthAdjust="spacingAndGlyphs" textLength="204" x="20" y="159.7344">Return NameIsBlank error message</text><ellipse cx="122" cy="217.2656" fill="#FFFFFF" filter="url(#f1os8n1txbr40o)" rx="10" ry="10" style="stroke: #000000; stroke-width: 1.5;"/><line style="stroke: #000000; stroke-width: 2.5;" x1="115.8128" x2="128.1872" y1="211.0784" y2="223.4528"/><line style="stroke: #000000; stroke-width: 2.5;" x1="128.1872" x2="115.8128" y1="211.0784" y2="223.4528"/><polygon fill="#FEFECE" filter="url(#f1os8n1txbr40o)" points="533.5,138.1328,669.5,138.1328,681.5,150.1328,669.5,162.1328,533.5,162.1328,521.5,150.1328,533.5,138.1328" style="stroke: #A80036; stroke-width: 1.5;"/><text fill="#000000" font-family="sans-serif" font-size="11" lengthAdjust="spacingAndGlyphs" textLength="136" x="533.5" y="154.29">email is blank or not valid</text><text fill="#000000" font-family="sans-serif" font-size="11" lengthAdjust="spacingAndGlyphs" textLength="18" x="503.5" y="147.8125">yes</text><text fill="#000000" font-family="sans-serif" font-size="11" lengthAdjust="spacingAndGlyphs" textLength="14" x="681.5" y="147.8125">no</text><rect fill="#FEFECE" filter="url(#f1os8n1txbr40o)" height="34.1328" rx="12.5" ry="12.5" style="stroke: #A80036; stroke-width: 1.5;" width="239" x="244" y="172.1328"/><text fill="#000000" font-family="sans-serif" font-size="12" lengthAdjust="spacingAndGlyphs" textLength="219" x="254" y="193.7344">Return EmailIsNotValid error message</text><ellipse cx="363.5" cy="251.2656" fill="#FFFFFF" filter="url(#f1os8n1txbr40o)" rx="10" ry="10" style="stroke: #000000; stroke-width: 1.5;"/><line style="stroke: #000000; stroke-width: 2.5;" x1="357.3128" x2="369.6872" y1="245.0784" y2="257.4528"/><line style="stroke: #000000; stroke-width: 2.5;" x1="369.6872" x2="357.3128" y1="245.0784" y2="257.4528"/><rect fill="#FEFECE" filter="url(#f1os8n1txbr40o)" height="34.1328" rx="12.5" ry="12.5" style="stroke: #A80036; stroke-width: 1.5;" width="136" x="801.5" y="172.1328"/><text fill="#000000" font-family="sans-serif" font-size="12" lengthAdjust="spacingAndGlyphs" textLength="116" x="811.5" y="193.7344">Update a user in DB</text><polygon fill="#FEFECE" filter="url(#f1os8n1txbr40o)" points="837.5,241.2656,901.5,241.2656,913.5,253.2656,901.5,265.2656,837.5,265.2656,825.5,253.2656,837.5,241.2656" style="stroke: #A80036; stroke-width: 1.5;"/><text fill="#000000" font-family="sans-serif" font-size="11" lengthAdjust="spacingAndGlyphs" textLength="64" x="837.5" y="257.4229">user found?</text><text fill="#000000" font-family="sans-serif" font-size="11" lengthAdjust="spacingAndGlyphs" textLength="18" x="807.5" y="250.9453">yes</text><text fill="#000000" font-family="sans-serif" font-size="11" lengthAdjust="spacingAndGlyphs" textLength="14" x="913.5" y="250.9453">no</text><rect fill="#FEFECE" filter="url(#f1os8n1txbr40o)" height="34.1328" rx="12.5" ry="12.5" style="stroke: #A80036; stroke-width: 1.5;" width="159" x="603" y="275.2656"/><text fill="#000000" font-family="sans-serif" font-size="12" lengthAdjust="spacingAndGlyphs" textLength="139" x="613" y="296.8672">Send information e-mail</text><polygon fill="#FEFECE" filter="url(#f1os8n1txbr40o)" points="615.5,329.3984,749.5,329.3984,761.5,341.3984,749.5,353.3984,615.5,353.3984,603.5,341.3984,615.5,329.3984" style="stroke: #A80036; stroke-width: 1.5;"/><text fill="#000000" font-family="sans-serif" font-size="11" lengthAdjust="spacingAndGlyphs" textLength="134" x="615.5" y="345.5557">e-mail successfully sent?</text><text fill="#000000" font-family="sans-serif" font-size="11" lengthAdjust="spacingAndGlyphs" textLength="18" x="585.5" y="339.0781">yes</text><text fill="#000000" font-family="sans-serif" font-size="11" lengthAdjust="spacingAndGlyphs" textLength="14" x="761.5" y="339.0781">no</text><rect fill="#FEFECE" filter="url(#f1os8n1txbr40o)" height="34.1328" rx="12.5" ry="12.5" style="stroke: #A80036; stroke-width: 1.5;" width="160" x="493" y="363.3984"/><text fill="#000000" font-family="sans-serif" font-size="12" lengthAdjust="spacingAndGlyphs" textLength="140" x="503" y="385">Return a result to a user</text><rect fill="#FEFECE" filter="url(#f1os8n1txbr40o)" height="34.1328" rx="12.5" ry="12.5" style="stroke: #A80036; stroke-width: 1.5;" width="238" x="673" y="363.3984"/><text fill="#000000" font-family="sans-serif" font-size="12" lengthAdjust="spacingAndGlyphs" textLength="218" x="683" y="385">Return MailServerError error message</text><ellipse cx="792" cy="427.5313" fill="#FFFFFF" filter="url(#f1os8n1txbr40o)" rx="10" ry="10" style="stroke: #000000; stroke-width: 1.5;"/><line style="stroke: #000000; stroke-width: 2.5;" x1="785.8128" x2="798.1872" y1="421.3441" y2="433.7184"/><line style="stroke: #000000; stroke-width: 2.5;" x1="798.1872" x2="785.8128" y1="421.3441" y2="433.7184"/><rect fill="#FEFECE" filter="url(#f1os8n1txbr40o)" height="34.1328" rx="12.5" ry="12.5" style="stroke: #A80036; stroke-width: 1.5;" width="231" x="941" y="275.2656"/><text fill="#000000" font-family="sans-serif" font-size="12" lengthAdjust="spacingAndGlyphs" textLength="211" x="951" y="296.8672">Return UserNotFound error message</text><ellipse cx="1056.5" cy="339.3984" fill="#FFFFFF" filter="url(#f1os8n1txbr40o)" rx="10" ry="10" style="stroke: #000000; stroke-width: 1.5;"/><line style="stroke: #000000; stroke-width: 2.5;" x1="1050.3128" x2="1062.6872" y1="333.2113" y2="345.5856"/><line style="stroke: #000000; stroke-width: 2.5;" x1="1062.6872" x2="1050.3128" y1="333.2113" y2="345.5856"/><ellipse cx="601.5" cy="467.5313" fill="none" filter="url(#f1os8n1txbr40o)" rx="10" ry="10" style="stroke: #000000; stroke-width: 1.0;"/><ellipse cx="602" cy="468.0313" fill="#000000" filter="url(#f1os8n1txbr40o)" rx="6" ry="6" style="stroke: none; stroke-width: 1.0;"/><line style="stroke: #A80036; stroke-width: 1.5;" x1="366.75" x2="366.75" y1="30" y2="50"/><polygon fill="#A80036" points="362.75,40,366.75,50,370.75,40,366.75,44" style="stroke: #A80036; stroke-width: 1.0;"/><line style="stroke: #A80036; stroke-width: 1.5;" x1="122" x2="122" y1="172.2656" y2="207.2656"/><polygon fill="#A80036" points="118,197.2656,122,207.2656,126,197.2656,122,201.2656" style="stroke: #A80036; stroke-width: 1.0;"/><line style="stroke: #A80036; stroke-width: 1.5;" x1="363.5" x2="363.5" y1="206.2656" y2="241.2656"/><polygon fill="#A80036" points="359.5,231.2656,363.5,241.2656,367.5,231.2656,363.5,235.2656" style="stroke: #A80036; stroke-width: 1.0;"/><line style="stroke: #A80036; stroke-width: 1.5;" x1="792" x2="792" y1="397.5313" y2="417.5313"/><polygon fill="#A80036" points="788,407.5313,792,417.5313,796,407.5313,792,411.5313" style="stroke: #A80036; stroke-width: 1.0;"/><line style="stroke: #A80036; stroke-width: 1.5;" x1="603.5" x2="573" y1="341.3984" y2="341.3984"/><line style="stroke: #A80036; stroke-width: 1.5;" x1="573" x2="573" y1="341.3984" y2="363.3984"/><polygon fill="#A80036" points="569,353.3984,573,363.3984,577,353.3984,573,357.3984" style="stroke: #A80036; stroke-width: 1.0;"/><line style="stroke: #A80036; stroke-width: 1.5;" x1="761.5" x2="792" y1="341.3984" y2="341.3984"/><line style="stroke: #A80036; stroke-width: 1.5;" x1="792" x2="792" y1="341.3984" y2="363.3984"/><polygon fill="#A80036" points="788,353.3984,792,363.3984,796,353.3984,792,357.3984" style="stroke: #A80036; stroke-width: 1.0;"/><line style="stroke: #A80036; stroke-width: 1.5;" x1="573" x2="573" y1="397.5313" y2="442.5313"/><line style="stroke: #A80036; stroke-width: 1.5;" x1="573" x2="601.5" y1="442.5313" y2="442.5313"/><line style="stroke: #A80036; stroke-width: 1.5;" x1="601.5" x2="601.5" y1="442.5313" y2="457.5313"/><polygon fill="#A80036" points="597.5,447.5313,601.5,457.5313,605.5,447.5313,601.5,451.5313" style="stroke: #A80036; stroke-width: 1.0;"/><line style="stroke: #A80036; stroke-width: 1.5;" x1="682.5" x2="682.5" y1="309.3984" y2="329.3984"/><polygon fill="#A80036" points="678.5,319.3984,682.5,329.3984,686.5,319.3984,682.5,323.3984" style="stroke: #A80036; stroke-width: 1.0;"/><line style="stroke: #A80036; stroke-width: 1.5;" x1="1056.5" x2="1056.5" y1="309.3984" y2="329.3984"/><polygon fill="#A80036" points="1052.5,319.3984,1056.5,329.3984,1060.5,319.3984,1056.5,323.3984" style="stroke: #A80036; stroke-width: 1.0;"/><line style="stroke: #A80036; stroke-width: 1.5;" x1="825.5" x2="682.5" y1="253.2656" y2="253.2656"/><line style="stroke: #A80036; stroke-width: 1.5;" x1="682.5" x2="682.5" y1="253.2656" y2="275.2656"/><polygon fill="#A80036" points="678.5,265.2656,682.5,275.2656,686.5,265.2656,682.5,269.2656" style="stroke: #A80036; stroke-width: 1.0;"/><line style="stroke: #A80036; stroke-width: 1.5;" x1="913.5" x2="1056.5" y1="253.2656" y2="253.2656"/><line style="stroke: #A80036; stroke-width: 1.5;" x1="1056.5" x2="1056.5" y1="253.2656" y2="275.2656"/><polygon fill="#A80036" points="1052.5,265.2656,1056.5,275.2656,1060.5,265.2656,1056.5,269.2656" style="stroke: #A80036; stroke-width: 1.0;"/><line style="stroke: #A80036; stroke-width: 1.5;" x1="869.5" x2="869.5" y1="206.2656" y2="241.2656"/><polygon fill="#A80036" points="865.5,231.2656,869.5,241.2656,873.5,231.2656,869.5,235.2656" style="stroke: #A80036; stroke-width: 1.0;"/><line style="stroke: #A80036; stroke-width: 1.5;" x1="521.5" x2="363.5" y1="150.1328" y2="150.1328"/><line style="stroke: #A80036; stroke-width: 1.5;" x1="363.5" x2="363.5" y1="150.1328" y2="172.1328"/><polygon fill="#A80036" points="359.5,162.1328,363.5,172.1328,367.5,162.1328,363.5,166.1328" style="stroke: #A80036; stroke-width: 1.0;"/><line style="stroke: #A80036; stroke-width: 1.5;" x1="681.5" x2="869.5" y1="150.1328" y2="150.1328"/><line style="stroke: #A80036; stroke-width: 1.5;" x1="869.5" x2="869.5" y1="150.1328" y2="172.1328"/><polygon fill="#A80036" points="865.5,162.1328,869.5,172.1328,873.5,162.1328,869.5,166.1328" style="stroke: #A80036; stroke-width: 1.0;"/><line style="stroke: #A80036; stroke-width: 1.5;" x1="318.25" x2="122" y1="116.1328" y2="116.1328"/><line style="stroke: #A80036; stroke-width: 1.5;" x1="122" x2="122" y1="116.1328" y2="138.1328"/><polygon fill="#A80036" points="118,128.1328,122,138.1328,126,128.1328,122,132.1328" style="stroke: #A80036; stroke-width: 1.0;"/><line style="stroke: #A80036; stroke-width: 1.5;" x1="415.25" x2="601.5" y1="116.1328" y2="116.1328"/><line style="stroke: #A80036; stroke-width: 1.5;" x1="601.5" x2="601.5" y1="116.1328" y2="138.1328"/><polygon fill="#A80036" points="597.5,128.1328,601.5,138.1328,605.5,128.1328,601.5,132.1328" style="stroke: #A80036; stroke-width: 1.0;"/><line style="stroke: #A80036; stroke-width: 1.5;" x1="366.75" x2="366.75" y1="84.1328" y2="104.1328"/><polygon fill="#A80036" points="362.75,94.1328,366.75,104.1328,370.75,94.1328,366.75,98.1328" style="stroke: #A80036; stroke-width: 1.0;"/><!--
@startuml
start
:Validate request;
if (name is blank) then (yes)
  :Return NameIsBlank error message;
  end
else (no)
  if (email is blank or not valid) then (yes)
    :Return EmailIsNotValid error message;
    end
  else (no)
    :Update a user in DB;
    if (user found?) then (yes)
      :Send information e-mail;
      if (e-mail successfully sent?) then (yes)
        :Return a result to a user;
      else (no)
        :Return MailServerError error message;
        end
      endif
    else (no)
      :Return UserNotFound error message;
      end
    endif
  endif
stop
@enduml

PlantUML version 1.2018.11(Sat Sep 22 18:43:53 CEST 2018)
(GPL source distribution)
Java Runtime: Java(TM) SE Runtime Environment
JVM: Java HotSpot(TM) 64-Bit Server VM
Java Version: 10.0.1+10
Operating System: Mac OS X
OS Version: 10.13.6
Default Encoding: UTF-8
Language: en
Country: CZ
--></g></svg>
